<?xml version="1.0" encoding="UTF-8"?>
<svg version="1.1" xmlns="http://www.w3.org/2000/svg" width="310" height="140">
<path d="M0 0 C102.3 0 204.6 0 310 0 C310 46.2 310 92.4 310 140 C207.7 140 105.4 140 0 140 C0 93.8 0 47.6 0 0 Z " fill="#FEFEFE" transform="translate(0,0)"/>
<path d="M0 0 C5.35275303 -0.07482879 10.70519351 -0.12891907 16.05834961 -0.16479492 C17.8748099 -0.17976973 19.69123474 -0.20015684 21.50756836 -0.22631836 C46.90088807 -0.58259327 46.90088807 -0.58259327 56 7 C60.94532488 12.00057991 63.27888578 16.6963324 63.4375 23.75 C63.2977885 30.85782263 61.115151 35.46580584 56.4609375 40.74609375 C49.29390695 47.55647112 41.48928034 49.35056779 31.875 49.25 C29.27625 49.1675 26.6775 49.085 24 49 C24 55.27 24 61.54 24 68 C26.97 68 29.94 68 33 68 C33 70.97 33 73.94 33 77 C22.11 77 11.22 77 0 77 C0 74.36 0 71.72 0 69 C1.4540625 68.5978125 1.4540625 68.5978125 2.9375 68.1875 C4.4534375 67.5996875 4.4534375 67.5996875 6 67 C7.01545766 63.95362701 7.1541977 61.80222902 7.20532227 58.6105957 C7.22526749 57.50968094 7.24521271 56.40876617 7.26576233 55.27449036 C7.29083107 53.49312935 7.29083107 53.49312935 7.31640625 51.67578125 C7.33718735 50.45924362 7.35796844 49.24270599 7.37937927 47.98930359 C7.44484717 44.09709404 7.50374715 40.20481615 7.5625 36.3125 C7.60568782 33.67642518 7.6493022 31.04035731 7.69335938 28.40429688 C7.80052578 21.93627049 7.90229745 15.46817589 8 9 C5.36 9 2.72 9 0 9 C0 6.03 0 3.06 0 0 Z " fill="#F09338" transform="translate(230,32)"/>
<path d="M0 0 C2.97 0 5.94 0 9 0 C11.8412777 5.49705179 14.27701662 10.99899652 16.4609375 16.78515625 C16.77398834 17.60390732 17.08703918 18.42265839 17.40957642 19.26622009 C18.40191217 21.86352705 19.3887301 24.46288437 20.375 27.0625 C21.35182205 29.62799166 22.32984304 32.19301992 23.30889893 34.75765991 C23.94947005 36.43622541 24.58876258 38.11527944 25.22674561 39.79483032 C26.70084865 43.66314274 28.19823087 47.51688475 29.77832031 51.34326172 C30.05511627 52.01642929 30.33191223 52.68959686 30.61709595 53.38316345 C31.35688159 55.17044759 32.10696984 56.95345782 32.85791016 58.73608398 C34.05942434 62.16982557 34.60375764 65.39122132 35 69 C36.98 69 38.96 69 41 69 C41 71.97 41 74.94 41 78 C31.43 78 21.86 78 12 78 C12 75.36 12 72.72 12 70 C13.98 69.01 13.98 69.01 16 68 C15.44549838 63.96005961 14.80044424 60.00222119 14 56 C6.08 56 -1.84 56 -10 56 C-10.99 59.3 -11.98 62.6 -13 66 C-13.33 66.99 -13.66 67.98 -14 69 C-11.69 69 -9.38 69 -7 69 C-7 71.97 -7 74.94 -7 78 C-14.92 78 -22.84 78 -31 78 C-31 75.36 -31 72.72 -31 70 C-29.576875 69.690625 -29.576875 69.690625 -28.125 69.375 C-24.80394225 68.35271312 -24.80394225 68.35271312 -24.0390625 65.5390625 C-23.69617188 64.37117188 -23.35328125 63.20328125 -23 62 C-22.45478585 60.49556804 -21.89615509 58.99596652 -21.328125 57.5 C-20.99997803 56.63052734 -20.67183105 55.76105469 -20.33374023 54.86523438 C-19.79728882 53.44694336 -19.79728882 53.44694336 -19.25 52 C-14.92468354 40.5199623 -10.67472364 29.01278113 -6.4375 17.5 C-6.11841675 16.63310547 -5.7993335 15.76621094 -5.47058105 14.87304688 C-3.64611055 9.91571127 -1.82263735 4.95800987 0 0 Z " fill="#F09439" transform="translate(183,31)"/>
<path d="M0 0 C0.66 0.33 1.32 0.66 2 1 C2 -0.32 2 -1.64 2 -3 C8.15234375 -3.09765625 8.15234375 -3.09765625 10 -3 C11 -2 11 -2 11.11352539 0.40844727 C11.10828857 1.45057373 11.10305176 2.4927002 11.09765625 3.56640625 C11.09443359 4.69111328 11.09121094 5.81582031 11.08789062 6.97460938 C11.07532227 8.75061523 11.07532227 8.75061523 11.0625 10.5625 C11.05798828 11.75037109 11.05347656 12.93824219 11.04882812 14.16210938 C11.03699675 17.10812226 11.02051287 20.05403681 11 23 C8.36 23 5.72 23 3 23 C2.65388672 22.00419922 2.65388672 22.00419922 2.30078125 20.98828125 C-0.01563607 14.71655847 -2.29372048 10.68385758 -7.8125 6.6875 C-12.7043365 5.15006567 -16.73657526 5.4852714 -21.375 7.375 C-24.03698031 8.88428742 -24.03698031 8.88428742 -26 11 C-26.60298108 14.79016681 -26.27937262 16.54951943 -24.24609375 19.828125 C-20.15453165 24.51290915 -14.19504766 26.53583145 -8.625 29 C9.92255206 37.26248259 9.92255206 37.26248259 14.33984375 45.88671875 C16.2048634 51.85698874 15.97290863 58.62327948 13.5 64.375 C9.81740134 70.54688138 4.38635438 73.8188597 -2.375 75.875 C-12.04332258 78.11538371 -21.02672628 77.48663686 -30 73 C-30.33 73.99 -30.66 74.98 -31 76 C-33.97 76 -36.94 76 -40 76 C-40 67.42 -40 58.84 -40 50 C-37.36 50 -34.72 50 -32 50 C-31.79246094 50.65226562 -31.58492187 51.30453125 -31.37109375 51.9765625 C-29.17995465 58.19242991 -26.77815655 62.5660517 -21 66 C-15.78157457 67.71147554 -10.05012496 67.95963296 -5.0625 65.625 C-2.93916257 64.01770773 -2.93916257 64.01770773 -1 62 C-0.79853598 58.306493 -0.82646811 55.52059568 -2 52 C-4.21414836 50.92623007 -4.21414836 50.92623007 -7 50 C-34.61745432 37.78644669 -34.61745432 37.78644669 -40 28 C-42.08985698 21.73042905 -42.18082397 13.70365986 -39.5625 7.5625 C-31.584837 -5.98230913 -12.76949699 -5.18844825 0 0 Z " fill="#F09439" transform="translate(134,34)"/>
<path d="M0 0 C0.66 0.33 1.32 0.66 2 1 C2 -0.32 2 -1.64 2 -3 C8.15234375 -3.09765625 8.15234375 -3.09765625 10 -3 C11 -2 11 -2 11.11352539 0.40844727 C11.10828857 1.45057373 11.10305176 2.4927002 11.09765625 3.56640625 C11.09443359 4.69111328 11.09121094 5.81582031 11.08789062 6.97460938 C11.07532227 8.75061523 11.07532227 8.75061523 11.0625 10.5625 C11.05798828 11.75037109 11.05347656 12.93824219 11.04882812 14.16210938 C11.03699675 17.10812226 11.02051287 20.05403681 11 23 C8.36 23 5.72 23 3 23 C2.65388672 22.00419922 2.65388672 22.00419922 2.30078125 20.98828125 C-0.01563607 14.71655847 -2.29372048 10.68385758 -7.8125 6.6875 C-12.7043365 5.15006567 -16.73657526 5.4852714 -21.375 7.375 C-24.03698031 8.88428742 -24.03698031 8.88428742 -26 11 C-26.60298108 14.79016681 -26.27937262 16.54951943 -24.24609375 19.828125 C-20.15453165 24.51290915 -14.19504766 26.53583145 -8.625 29 C9.92255206 37.26248259 9.92255206 37.26248259 14.33984375 45.88671875 C16.2048634 51.85698874 15.97290863 58.62327948 13.5 64.375 C9.81740134 70.54688138 4.38635438 73.8188597 -2.375 75.875 C-12.04332258 78.11538371 -21.02672628 77.48663686 -30 73 C-30.33 73.99 -30.66 74.98 -31 76 C-33.97 76 -36.94 76 -40 76 C-40 67.42 -40 58.84 -40 50 C-37.36 50 -34.72 50 -32 50 C-31.79246094 50.65226562 -31.58492187 51.30453125 -31.37109375 51.9765625 C-29.17995465 58.19242991 -26.77815655 62.5660517 -21 66 C-15.78157457 67.71147554 -10.05012496 67.95963296 -5.0625 65.625 C-2.93916257 64.01770773 -2.93916257 64.01770773 -1 62 C-0.79853598 58.306493 -0.82646811 55.52059568 -2 52 C-4.21414836 50.92623007 -4.21414836 50.92623007 -7 50 C-34.61745432 37.78644669 -34.61745432 37.78644669 -40 28 C-42.08985698 21.73042905 -42.18082397 13.70365986 -39.5625 7.5625 C-31.584837 -5.98230913 -12.76949699 -5.18844825 0 0 Z " fill="#F09439" transform="translate(69,34)"/>
<path d="M0 0 C4.1058243 2.05291215 6.36701319 3.72911141 8 8 C8.65836343 14.61783498 9.12118337 21.45771892 5 27 C0.694663 30.98243672 -2.39158403 32.13777164 -8.1875 32.0625 C-9.08855469 32.05347656 -9.98960937 32.04445312 -10.91796875 32.03515625 C-11.60503906 32.02355469 -12.29210937 32.01195312 -13 32 C-13.07420211 27.92497206 -13.1286257 23.85020608 -13.16479492 19.7746582 C-13.17987397 18.38852081 -13.2003405 17.00243106 -13.22631836 15.61645508 C-13.26273716 13.62341854 -13.27813018 11.63003277 -13.29296875 9.63671875 C-13.31653442 7.83787231 -13.31653442 7.83787231 -13.34057617 6.00268555 C-13 3 -13 3 -11.62353516 1.11230469 C-8.21020543 -1.22621114 -3.93227828 -0.55651217 0 0 Z " fill="#FEFDFB" transform="translate(267,41)"/>
<path d="M0 0 C2 1 2 1 3.21875 4.640625 C3.65367825 6.17488111 4.08040368 7.71148016 4.5 9.25 C4.92479313 10.77668076 5.35182407 12.30274088 5.78125 13.828125 C5.98492187 14.55193359 6.18859375 15.27574219 6.3984375 16.02148438 C7.02033074 18.17229749 7.02033074 18.17229749 8.15625 20.859375 C9 23 9 23 9 26 C3.72 26 -1.56 26 -7 26 C-6.24494185 20.71459298 -5.24862139 16.26359656 -3.5 11.3125 C-1.53243962 5.72137446 -1.53243962 5.72137446 0 0 Z " fill="#FEF9F5" transform="translate(184,52)"/>
</svg>
